HIERARCHY
ROOT Hips
{
	OFFSET -0.001795 -0.223333 0.028219
	CHANNELS 6 Xposition Yposition Zposition Zrotation Yrotation Xrotation 
	JOINT LeftUpLeg
	{
		OFFSET 0.069520 -0.091406 -0.006815
		CHANNELS 3 Zrotation Yrotation Xrotation
		JOINT LeftLeg
		{
			OFFSET 0.034277 -0.375199 -0.004496
			CHANNELS 3 Zrotation Yrotation Xrotation
			JOINT LeftFoot
			{
				OFFSET -0.013596 -0.397961 -0.043693
				CHANNELS 3 Zrotation Yrotation Xrotation
				JOINT LeftToe
				{
					OFFSET 0.026358 -0.055791 0.119288
					CHANNELS 3 Zrotation Yrotation Xrotation
					End Site
					{
						OFFSET 0.000000 0.000000 0.000000
					}
				}
			}
		}
	}
	JOINT RightUpLeg
	{
		OFFSET -0.067670 -0.090522 -0.004320
		CHANNELS 3 Zrotation Yrotation Xrotation
		JOINT RightLeg
		{
			OFFSET -0.038290 -0.382569 -0.008850
			CHANNELS 3 Zrotation Yrotation Xrotation
			JOINT RightFoot
			{
				OFFSET 0.015774 -0.398415 -0.042312
				CHANNELS 3 Zrotation Yrotation Xrotation
				JOINT RightToe
				{
					OFFSET -0.025372 -0.048144 0.123348
					CHANNELS 3 Zrotation Yrotation Xrotation
					End Site
					{
						OFFSET 0.000000 0.000000 0.000000
					}
				}
			}
		}
	}
	JOINT Spine
	{
		OFFSET -0.002533 0.108963 -0.026696
		CHANNELS 3 Zrotation Yrotation Xrotation
		JOINT Spine1
		{
			OFFSET 0.005487 0.135180 0.001092
			CHANNELS 3 Zrotation Yrotation Xrotation
			JOINT Spine2
			{
				OFFSET 0.001457 0.052922 0.025425
				CHANNELS 3 Zrotation Yrotation Xrotation
				JOINT Neck
				{
					OFFSET -0.002778 0.213870 -0.042857
					CHANNELS 3 Zrotation Yrotation Xrotation
					JOINT Head
					{
						OFFSET 0.005152 0.064970 0.051349
						CHANNELS 3 Zrotation Yrotation Xrotation
						End Site
						{
							OFFSET 0.000000 0.000000 0.000000
						}
					}
				}
				JOINT LeftShoulder
				{
					OFFSET 0.078845 0.121749 -0.034090
					CHANNELS 3 Zrotation Yrotation Xrotation
					JOINT LeftArm
					{
						OFFSET 0.090977 0.030469 -0.008868
						CHANNELS 3 Zrotation Yrotation Xrotation
						JOINT LeftForeArm
						{
							OFFSET 0.259612 -0.012772 -0.027456
							CHANNELS 3 Zrotation Yrotation Xrotation
							JOINT LeftHand
							{
								OFFSET 0.249234 0.008986 -0.001171
								CHANNELS 3 Zrotation Yrotation Xrotation
								End Site
								{
									OFFSET 0.000000 0.000000 0.000000
								}
							}
						}
					}
				}
				JOINT RightShoulder
				{
					OFFSET -0.081759 0.118833 -0.038615
					CHANNELS 3 Zrotation Yrotation Xrotation
					JOINT RightArm
					{
						OFFSET -0.096012 0.032551 -0.009143
						CHANNELS 3 Zrotation Yrotation Xrotation
						JOINT RightForeArm
						{
							OFFSET -0.253742 -0.013329 -0.021401
							CHANNELS 3 Zrotation Yrotation Xrotation
							JOINT RightHand
							{
								OFFSET -0.255298 0.007772 -0.005559
								CHANNELS 3 Zrotation Yrotation Xrotation
								End Site
								{
									OFFSET 0.000000 0.000000 0.000000
								}
							}
						}
					}
				}
			}
		}
	}
}
MOTION
Frames: 12
Frame Time: 0.050000
0.000000 0.940770 0.000000 -1.101555 -5.049015 10.108672 5.956182 -0.355292 -4.898512 1.207129 0.134680 -5.955876 3.377481 9.050448 9.253529 0.000000 0.000000 0.000000 -1.972449 0.639431 -6.400855 -2.613878 0.111262 -2.087203 -2.816305 -9.480045 6.796223 0.000000 0.000000 0.000000 4.554312 0.335298 -6.140855 -2.091628 0.926919 -7.065971 -2.463371 3.498500 5.365593 5.153279 -2.205453 -13.387425 0.000000 0.000000 0.000000 -0.197355 4.501440 -1.560492 -21.057070 -21.668376 0.496814 10.883151 -1.730430 -0.053847 0.000000 0.000000 0.000000 -2.142435 -9.446285 -2.911464 26.804446 17.969025 0.773479 -9.405923 8.205304 -0.178621 0.000000 0.000000 0.000000 
0.000465 0.939627 0.000138 -1.768990 -6.257417 11.060633 5.877041 -0.341254 -4.483345 1.793050 0.211857 -7.973558 4.198916 10.348787 9.124307 0.000000 0.000000 0.000000 -1.457612 0.703306 -7.079695 -3.439017 0.055101 -3.711804 -2.095271 -8.459097 7.869910 0.000000 0.000000 0.000000 5.935166 0.409966 -6.744105 -2.753912 1.160906 -7.409984 -2.819691 4.296851 4.238180 4.485750 -1.640060 -14.205070 0.000000 0.000000 0.000000 1.669237 5.477117 -1.595757 -17.771879 -23.032761 0.426070 8.437805 -1.861757 -0.037503 0.000000 0.000000 0.000000 -4.301114 -11.434247 -3.157081 25.648132 19.567984 1.055815 -11.021204 9.889882 -0.354482 0.000000 0.000000 0.000000 
0.000807 0.939347 0.000160 -1.378278 -6.487138 10.588098 5.665581 -0.335222 -4.466116 1.908762 0.095781 -6.071363 4.171214 10.194015 8.443317 0.000000 0.000000 0.000000 -2.210953 0.738645 -7.488237 -2.921489 0.085554 -2.731992 -2.262058 -8.610695 7.267106 0.000000 0.000000 0.000000 5.652419 0.340802 -6.018951 -2.260722 0.948179 -10.199881 -3.696376 5.484783 6.421097 6.052695 -2.734676 -13.072846 0.000000 0.000000 0.000000 4.256943 5.778877 -1.261567 -17.310246 -25.493557 0.513384 10.139725 -2.192430 -0.094024 0.000000 0.000000 0.000000 -4.787014 -12.430330 -3.496470 24.749937 20.853354 1.087851 -15.169507 10.033075 -0.555905 0.000000 0.000000 0.000000 
0.001042 0.939372 0.000225 -1.493835 -6.454171 10.805521 6.402605 -0.321669 -4.363428 1.077377 0.153319 -6.195465 4.138670 10.049097 7.799201 0.000000 0.000000 0.000000 -2.156223 0.740032 -7.485204 -2.910611 0.082336 -2.767414 -2.306533 -8.855554 7.736208 0.000000 0.000000 0.000000 5.524791 0.393311 -6.597694 -2.159329 0.915921 -9.224745 -3.388519 4.564136 5.267846 5.678675 -2.687215 -12.084950 0.000000 0.000000 0.000000 4.592801 7.783425 -1.829698 -17.512090 -27.801672 0.844561 12.839531 -2.661649 -0.158787 0.000000 0.000000 0.000000 -6.062192 -13.478500 -3.469587 24.576086 23.159241 1.546181 -18.213369 10.843946 -0.880169 0.000000 0.000000 0.000000 
0.001054 0.940034 0.000174 -1.094297 -5.942440 10.560579 5.704397 -0.323476 -4.017425 1.233197 0.162327 -6.550680 3.547811 9.120843 8.337479 0.000000 0.000000 0.000000 -2.722925 0.735633 -7.472649 -3.035079 0.113238 -2.466153 -2.198629 -8.483546 7.416613 0.000000 0.000000 0.000000 5.033941 0.396035 -6.717412 -1.553666 0.702580 -9.873999 -3.641709 4.861836 5.657316 5.904623 -2.838414 -11.762150 0.000000 0.000000 0.000000 4.855954 8.067321 -1.828293 -18.886802 -28.882301 1.131290 16.048354 -6.932026 -0.702842 0.000000 0.000000 0.000000 -6.387754 -14.228572 -3.692751 27.201011 22.862574 1.816456 -23.160465 14.947291 -1.839109 0.000000 0.000000 0.000000 
0.001156 0.939951 -0.000032 -0.889212 -5.337796 10.412879 5.562857 -0.339653 -4.276253 0.924307 0.147899 -5.871332 3.781103 9.482857 7.712784 0.000000 0.000000 0.000000 -3.073187 0.706882 -7.153616 -3.010019 0.106243 -2.599358 -2.565790 -9.323129 7.874316 0.000000 0.000000 0.000000 4.526359 0.419791 -7.101767 -1.278584 0.612421 -9.338135 -3.444274 4.553850 5.448756 5.817932 -2.873831 -11.097799 0.000000 0.000000 0.000000 4.238895 9.693959 -2.412492 -22.632511 -29.512715 1.807776 20.080596 -13.370457 -1.879383 0.000000 0.000000 0.000000 -6.522134 -14.399649 -3.716619 31.341949 23.056340 2.399130 -27.713326 18.420798 -3.010920 0.000000 0.000000 0.000000 
0.001201 0.940148 -0.000267 -0.721979 -4.707027 9.933076 5.460610 -0.328300 -3.996594 0.957935 0.139536 -5.731692 3.039378 8.246230 7.933538 0.000000 0.000000 0.000000 -3.417515 0.626055 -6.153652 -2.765232 0.053971 -3.219848 -2.227788 -8.578110 7.891496 0.000000 0.000000 0.000000 4.513852 0.464709 -7.572680 -1.294706 0.624532 -8.213339 -3.884434 4.446672 4.898993 6.270876 -3.164641 -10.919406 0.000000 0.000000 0.000000 3.051729 9.515912 -2.558783 -26.704533 -28.640302 2.309486 21.098999 -19.581880 -3.013899 0.000000 0.000000 0.000000 -4.612015 -14.374230 -4.104804 35.398225 21.456944 2.517582 -26.370080 22.783281 -3.656086 0.000000 0.000000 0.000000 
0.001406 0.940454 -0.000515 -0.617173 -3.983375 9.766157 5.277953 -0.334692 -3.998792 0.743349 0.140928 -5.448955 2.679177 7.622501 7.752541 0.000000 0.000000 0.000000 -3.962114 0.617411 -6.066961 -2.526822 0.048379 -3.101642 -2.319743 -8.735110 8.010034 0.000000 0.000000 0.000000 4.368557 0.464370 -7.659347 -1.220762 0.609060 -8.163408 -4.398463 5.108935 5.330624 6.343496 -3.144507 -10.858542 0.000000 0.000000 0.000000 0.018163 9.073927 -3.016594 -31.904104 -26.395641 2.500819 20.364017 -26.299374 -4.047857 0.000000 0.000000 0.000000 -0.463578 -14.230430 -4.921343 38.923968 18.557350 1.971130 -21.056432 25.803993 -3.041872 0.000000 0.000000 0.000000 
0.001556 0.939986 -0.000642 -0.530474 -3.664150 9.659579 5.288022 -0.338157 -4.055800 0.475048 0.151701 -5.287792 2.449202 7.155511 7.403331 0.000000 0.000000 0.000000 -3.897568 0.570492 -5.431430 -2.931798 0.028477 -3.876524 -1.987477 -8.085696 8.192148 0.000000 0.000000 0.000000 4.466919 0.507130 -8.126201 -1.200597 0.599844 -7.195608 -4.695479 5.626181 4.898044 6.218442 -2.974993 -10.952724 0.000000 0.000000 0.000000 -3.559711 8.010973 -3.427743 -37.184348 -24.330508 2.621997 14.807860 -27.215208 -2.882265 0.000000 0.000000 0.000000 2.770995 -12.860789 -4.993923 42.597477 15.435238 1.236476 -11.086237 25.703224 -1.024616 0.000000 0.000000 0.000000 
0.001507 0.939561 -0.000701 -0.499681 -3.485888 9.787696 5.564927 -0.347505 -4.273320 0.113729 0.183985 -5.513147 2.208628 6.745387 7.459230 0.000000 0.000000 0.000000 -4.040896 0.591207 -5.725964 -2.967763 0.063714 -3.370285 -1.447599 -6.776463 7.625645 0.000000 0.000000 0.000000 4.663582 0.516677 -8.199215 -1.430713 0.691211 -6.911173 -4.682871 6.252016 5.044290 6.675863 -3.017761 -12.161441 0.000000 0.000000 0.000000 -6.639035 7.577920 -3.994897 -43.312787 -20.391848 1.904326 6.790917 -27.139162 -0.953460 0.000000 0.000000 0.000000 6.377537 -12.153868 -5.261222 46.784900 12.390719 0.300358 -2.118318 24.353798 0.745471 0.000000 0.000000 0.000000 
0.001290 0.939238 -0.000600 -0.299132 -3.844601 9.920489 5.298665 -0.349376 -4.296308 0.495278 0.155299 -5.404757 2.149561 6.545576 7.185708 0.000000 0.000000 0.000000 -3.917684 0.597614 -5.787380 -3.475169 0.078335 -3.621673 -1.141941 -6.260677 7.854633 0.000000 0.000000 0.000000 4.273560 0.501447 -8.145370 -1.533622 0.726484 -6.852952 -4.213126 6.842286 5.211553 6.425240 -2.640562 -13.273811 0.000000 0.000000 0.000000 -9.557407 7.334081 -4.606211 -48.870100 -15.241450 0.215515 0.389849 -24.881452 0.548727 0.000000 0.000000 0.000000 9.443226 -11.191369 -5.262641 52.476722 10.300106 -0.434009 1.551631 22.370327 1.320115 0.000000 0.000000 0.000000 
0.001208 0.938686 -0.000437 -0.188216 -3.988008 10.062131 5.543984 -0.347763 -4.335100 0.508478 0.157362 -5.474954 1.892130 6.153765 7.545626 0.000000 0.000000 0.000000 -3.985562 0.597034 -5.742798 -3.445322 0.062832 -3.809510 -0.967450 -5.990808 8.064352 0.000000 0.000000 0.000000 4.347338 0.498591 -8.081308 -1.647761 0.769371 -6.785430 -4.048912 6.918583 5.448735 6.614362 -2.509211 -14.826158 0.000000 0.000000 0.000000 -10.690606 7.667269 -5.014500 -54.369046 -10.765011 -1.787145 -4.274294 -20.952926 1.343543 0.000000 0.000000 0.000000 10.227768 -10.425714 -5.017212 58.327560 8.139548 -1.336667 5.509276 22.301562 2.018334 0.000000 0.000000 0.000000 
